<?xml version="1.0" standalone="no"?>
<!DOCTYPE svg PUBLIC "-//W3C//DTD SVG 20010904//EN"
 "http://www.w3.org/TR/2001/REC-SVG-20010904/DTD/svg10.dtd">
<svg version="1.0" xmlns="http://www.w3.org/2000/svg"
 width="150.000000pt" height="150.000000pt" viewBox="0 0 150.000000 150.000000"
 preserveAspectRatio="xMidYMid meet">

<g transform="translate(0.000000,150.000000) scale(0.100000,-0.100000)"
fill="#FFFFFF" stroke="none">
<path d="M401 1389 c-92 -18 -181 -95 -230 -198 -23 -49 -26 -69 -26 -156 0
-115 19 -167 85 -233 118 -117 296 -141 423 -55 l50 34 111 -43 c100 -39 120
-43 196 -43 69 0 93 5 128 23 64 34 120 96 155 170 29 60 32 77 32 157 0 76
-4 99 -26 146 -47 99 -136 165 -262 191 -71 15 -144 0 -220 -46 l-56 -34 -113
43 c-125 47 -181 57 -247 44z m304 -169 c97 -39 180 -70 184 -70 4 0 15 19 24
42 17 43 12 57 -20 58 -24 0 -13 18 18 29 68 24 165 7 230 -40 38 -27 87 -112
95 -165 13 -92 -50 -216 -135 -263 -75 -41 -120 -35 -329 47 -100 40 -187 72
-192 72 -9 0 -40 -62 -40 -79 0 -4 12 -12 28 -18 l27 -10 -40 -18 c-115 -51
-281 38 -316 169 -32 119 43 269 155 310 63 24 118 12 311 -64z"/>
<path d="M545 1228 c-2 -7 -29 -80 -60 -163 -30 -82 -55 -156 -55 -162 0 -15
71 -47 80 -36 9 11 120 317 120 331 0 7 -2 12 -4 12 -2 0 -20 7 -40 15 -29 12
-37 13 -41 3z"/>
<path d="M896 1056 c-33 -91 -59 -168 -59 -173 1 -4 19 -15 41 -24 l39 -17 62
168 c33 93 61 171 61 174 0 6 -67 36 -79 36 -3 0 -33 -74 -65 -164z"/>
<path d="M664 1142 c-32 -25 -44 -55 -44 -107 0 -40 5 -52 34 -81 29 -29 41
-34 80 -34 36 0 52 6 77 28 27 24 33 37 37 85 4 54 3 58 -31 92 -30 30 -41 35
-83 35 -31 0 -57 -7 -70 -18z"/>
<path d="M530 610 c0 -33 4 -60 10 -60 6 0 10 16 10 35 0 28 4 35 20 35 16 0
20 -7 20 -35 0 -19 5 -35 10 -35 15 0 12 66 -4 79 -7 6 -21 9 -30 5 -12 -4
-16 0 -16 15 0 12 -4 21 -10 21 -6 0 -10 -27 -10 -60z"/>
<path d="M830 610 c0 -33 4 -60 10 -60 6 0 10 27 10 60 0 33 -4 60 -10 60 -6
0 -10 -27 -10 -60z"/>
<path d="M1036 645 c-9 -14 -12 -25 -7 -25 5 0 12 -17 14 -37 l4 -38 1 38 c1
22 7 37 15 37 8 0 8 3 -2 9 -12 8 -12 12 -2 25 8 9 9 16 3 16 -5 0 -17 -11
-26 -25z"/>
<path d="M363 633 c-23 -9 -13 -34 17 -44 36 -13 29 -33 -9 -24 -19 5 -23 4
-15 -5 16 -17 58 -8 62 12 2 12 -5 19 -22 24 -35 8 -34 28 2 20 26 -6 26 -6 8
9 -21 16 -24 16 -43 8z"/>
<path d="M456 627 c-12 -9 -17 -23 -14 -42 3 -26 7 -30 32 -30 17 0 31 6 34
15 5 13 3 13 -11 1 -23 -19 -49 -6 -45 21 2 18 9 23 31 23 30 -1 36 9 11 19
-20 8 -17 8 -38 -7z"/>
<path d="M646 627 c-12 -9 -17 -23 -14 -42 3 -27 7 -30 38 -30 31 0 35 3 38
30 3 26 -17 55 -38 55 -3 0 -14 -6 -24 -13z m48 -22 c8 -22 -4 -45 -24 -45
-20 0 -36 33 -25 50 9 15 42 12 49 -5z"/>
<path d="M746 627 c-12 -9 -17 -23 -14 -42 3 -27 7 -30 38 -30 31 0 35 3 38
30 3 26 -17 55 -38 55 -3 0 -14 -6 -24 -13z m49 -17 c11 -17 -5 -50 -25 -50
-20 0 -32 23 -24 45 7 17 40 20 49 5z"/>
<path d="M946 627 c-26 -19 -18 -71 12 -75 13 -2 30 2 38 8 20 18 17 57 -5 70
-25 13 -24 13 -45 -3z m42 -34 c-3 -31 -34 -44 -44 -19 -9 24 3 46 26 46 17 0
21 -5 18 -27z"/>
<path d="M185 505 c-19 -18 -25 -35 -25 -70 0 -57 32 -95 80 -95 30 0 80 37
80 60 0 18 -20 11 -44 -17 -21 -25 -26 -26 -50 -15 -47 21 -56 82 -18 125 20
23 47 22 72 -3 11 -11 25 -20 30 -20 16 0 12 18 -10 40 -29 29 -84 27 -115 -5z"/>
<path d="M850 515 c0 -8 5 -15 10 -15 6 0 10 7 10 15 0 8 -4 15 -10 15 -5 0
-10 -7 -10 -15z"/>
<path d="M1010 515 c0 -8 7 -15 15 -15 8 0 15 7 15 15 0 8 -7 15 -15 15 -8 0
-15 -7 -15 -15z"/>
<path d="M930 501 c0 -10 -7 -22 -17 -25 -15 -6 -15 -8 0 -19 10 -7 17 -31 19
-62 3 -43 6 -50 26 -53 25 -4 30 13 7 22 -10 4 -15 20 -15 51 0 33 4 45 15 45
8 0 15 5 15 10 0 6 -6 9 -12 8 -7 -2 -14 7 -16 20 -4 27 -22 30 -22 3z"/>
<path d="M371 454 c-24 -30 -26 -46 -10 -77 16 -29 28 -37 61 -37 36 0 71 45
63 80 -16 63 -77 81 -114 34z m83 -27 c7 -19 7 -34 0 -45 -25 -39 -74 -20 -74
27 0 55 57 69 74 18z"/>
<path d="M537 462 c-10 -10 -17 -35 -17 -55 0 -47 37 -76 75 -59 25 12 30 6
19 -22 -7 -19 -37 -21 -64 -4 -26 16 -40 0 -16 -18 23 -17 60 -18 87 -4 16 9
19 22 19 95 0 50 -4 85 -10 85 -5 0 -10 -5 -10 -12 0 -9 -3 -9 -12 0 -18 18
-53 15 -71 -6z m73 -23 c7 -11 9 -31 6 -44 -11 -42 -61 -42 -72 0 -13 52 43
89 66 44z"/>
<path d="M690 410 c0 -81 17 -95 22 -19 6 95 68 93 68 -2 0 -27 5 -49 10 -49
6 0 10 26 10 59 0 71 -16 91 -61 74 -16 -6 -29 -7 -29 -2 0 5 -4 9 -10 9 -6 0
-10 -30 -10 -70z"/>
<path d="M850 410 c0 -40 4 -70 10 -70 6 0 10 30 10 70 0 40 -4 70 -10 70 -6
0 -10 -30 -10 -70z"/>
<path d="M1010 410 c0 -56 3 -70 15 -70 12 0 15 14 15 70 0 56 -3 70 -15 70
-12 0 -15 -14 -15 -70z"/>
<path d="M1074 463 c22 -69 46 -118 58 -121 10 -2 22 17 36 56 24 65 27 82 13
82 -5 0 -17 -22 -26 -50 -9 -27 -18 -50 -20 -50 -2 0 -11 23 -20 50 -10 30
-23 50 -31 50 -10 0 -13 -6 -10 -17z"/>
<path d="M1247 467 c-10 -6 -20 -28 -23 -48 -10 -62 51 -102 102 -65 10 8 16
18 12 22 -4 4 -14 1 -22 -5 -20 -17 -60 -10 -64 12 -3 14 4 17 47 17 58 0 64
11 30 54 -22 28 -55 34 -82 13z m61 -19 c20 -20 14 -28 -23 -28 -19 0 -35 4
-35 8 0 12 22 32 35 32 6 0 16 -5 23 -12z"/>
<path d="M370 255 c-16 -19 -6 -32 37 -50 30 -13 33 -17 23 -30 -16 -19 -25
-19 -45 1 -20 20 -33 11 -15 -11 25 -30 80 -15 80 21 0 19 -7 26 -30 31 -36 7
-47 20 -31 36 9 9 17 8 32 -1 22 -14 35 -10 24 7 -9 16 -61 13 -75 -4z"/>
<path d="M482 228 c-7 -7 -12 -21 -12 -33 0 -41 45 -60 70 -30 14 17 0 21 -17
4 -16 -16 -33 -2 -33 26 0 28 17 42 33 26 17 -17 31 -13 17 4 -15 18 -42 19
-58 3z"/>
<path d="M573 195 c0 -27 2 -38 4 -22 2 15 2 37 0 50 -2 12 -4 0 -4 -28z"/>
<path d="M609 219 c-17 -34 4 -71 38 -67 14 2 29 10 31 18 5 13 3 13 -11 1
-18 -14 -47 -9 -47 9 0 5 14 10 30 10 23 0 30 5 30 19 0 35 -53 42 -71 10z
m55 -4 c4 -11 -1 -15 -19 -15 -24 0 -32 10 -18 23 11 12 31 8 37 -8z"/>
<path d="M700 193 c0 -53 18 -58 22 -5 2 25 8 37 18 37 10 0 16 -12 18 -37 4
-46 22 -51 22 -5 0 44 -10 56 -48 55 -31 -1 -32 -2 -32 -45z"/>
<path d="M813 234 c-7 -3 -13 -21 -13 -40 0 -27 5 -35 24 -40 27 -6 46 1 46
18 0 6 -6 6 -16 -2 -21 -18 -49 9 -39 39 7 24 25 27 44 9 11 -11 13 -10 9 2
-5 16 -34 23 -55 14z"/>
<path d="M902 228 c-7 -7 -12 -21 -12 -33 0 -41 45 -60 70 -30 14 17 0 21 -17
4 -6 -6 -16 -8 -22 -5 -21 13 -11 26 19 26 18 0 30 5 30 13 0 18 -21 37 -40
37 -9 0 -21 -5 -28 -12z m46 -16 c2 -7 -6 -12 -17 -12 -21 0 -27 11 -14 24 9
9 26 2 31 -12z"/>
<path d="M991 226 c-12 -15 -2 -27 33 -40 14 -5 16 -10 8 -18 -8 -8 -15 -8
-27 2 -8 7 -18 11 -20 8 -12 -12 26 -30 51 -24 31 8 29 38 -4 46 -27 6 -26 26
1 23 10 -2 15 2 12 7 -9 14 -41 12 -54 -4z"/>
</g>
</svg>
